<svg width="255" height="255" viewBox="0 0 255 255" fill="none" xmlns="http://www.w3.org/2000/svg">
<rect width="255" height="255" rx="50" fill="#EBF3FE"/>
<path d="M104.257 44.246C101.67 45.2411 99.6794 47.0323 99.6794 48.0273C99.6794 49.0224 94.903 52.4057 89.3306 55.5899C71.0212 65.3416 67.638 80.4668 81.569 88.6264C87.1414 91.8106 87.1414 91.8106 86.1464 87.0343C85.3503 82.2579 92.1168 70.118 95.8981 70.118C96.8932 70.118 97.6892 94.7959 97.6892 131.017V192.114L89.5296 190.721C81.967 189.527 81.569 189.726 82.1661 193.905C82.5641 196.891 85.1513 199.478 89.3306 201.269C93.9079 203.458 95.6991 205.448 95.6991 209.03C95.6991 213.21 96.2961 213.608 101.271 212.414C104.257 211.817 109.232 209.827 112.416 208.234C115.601 206.642 121.571 205.448 125.551 205.448C142.667 205.448 161.374 194.502 167.543 180.77C175.703 162.859 170.33 142.559 156.001 135.793C152.418 134.201 149.433 132.41 149.433 131.813C149.433 131.216 153.612 128.628 158.787 125.842C170.927 119.474 180.678 106.737 182.47 94.7959C186.45 68.5259 167.742 51.0126 133.114 48.8234C122.367 48.0273 115.999 46.6342 115.004 45.0421C113.212 41.8579 110.625 41.6589 104.257 44.246ZM147.045 69.919C158.986 76.0884 162.17 81.8599 161.573 96.786C161.175 105.344 143.264 122.26 129.731 126.837C113.411 132.211 113.61 132.41 113.61 97.3831C113.61 80.4668 114.207 66.1377 115.203 65.3416C117.79 62.5554 138.487 65.5407 147.045 69.919ZM131.323 139.972C156.598 145.346 160.976 172.014 139.283 187.935C133.91 191.915 119.979 195.895 117.193 194.303C116.397 193.706 115.601 180.77 115.601 165.446C115.601 134.4 114.406 136.39 131.323 139.972Z" fill="#0065FC"/>
</svg>